<svg width="139" height="84" viewBox="0 0 139 84" fill="none" xmlns="http://www.w3.org/2000/svg">
<path d="M111.544 65.8266C111.544 65.8266 111.841 66.802 111.959 67.4818C112.018 67.8365 111.989 68.3095 111.959 68.6937C111.929 69.078 111.929 69.2849 111.989 69.3736C112.018 69.4327 112.107 69.4622 112.226 69.4622C112.463 69.4327 112.849 69.2553 113.056 69.1371C113.115 69.1075 113.175 69.1075 113.234 69.078C113.501 69.0484 113.768 69.1962 113.797 69.1962C114.005 69.1962 114.213 69.1962 114.39 69.1962C114.924 69.1371 115.399 68.9302 115.873 68.5755C117.148 67.6001 117.504 65.9743 116.703 64.6442C116.703 64.6442 116.377 63.9939 116.851 63.0776C117.296 62.2204 118.275 62.0726 118.304 62.0726H118.364L118.334 62.0135C118.334 62.0135 118.008 61.1268 118.69 60.1218C119.223 59.3533 120.261 59.1759 120.291 59.1759H120.35V59.1168C120.35 59.1168 120.202 58.0527 120.765 57.3433C121.062 56.959 121.536 56.7226 122.129 56.6634C122.188 56.6634 122.218 56.6634 122.277 56.6634C122.989 56.693 123.908 57.1659 124.323 57.3729C124.442 57.432 124.501 57.4615 124.501 57.4615C124.531 57.4615 124.531 57.4615 124.56 57.4615C124.649 57.4615 124.738 57.3433 124.738 57.3433C124.738 57.3433 124.946 57.0477 125.124 56.6634V56.6339C125.124 56.6043 125.124 56.5748 125.005 56.3383L125.539 55.8358L125.48 55.6289C125.687 55.3924 127.525 53.5894 130.965 52.4366C131.499 52.2297 132.092 52.0819 132.744 52.0228C135.59 51.7272 138.763 52.7617 138.793 52.7617L138.97 52.8209L138.852 52.6731C138.852 52.6731 138.022 51.6976 136.539 50.7813C135.146 49.9537 132.892 49.0078 129.927 49.1852C129.66 49.2147 129.393 49.2147 129.127 49.2443C125.687 49.599 123.167 51.2247 122.811 51.4612C122.752 51.3725 122.633 51.2543 122.574 51.2543H122.544C122.455 51.2543 122.07 51.5203 121.981 51.5794C121.981 51.5794 121.744 51.9341 121.566 52.141C121.447 52.2888 121.506 52.3775 121.536 52.4366C121.536 52.4366 121.536 52.4662 121.566 52.4662C121.566 52.4957 121.536 52.4957 121.536 52.4957C121.506 52.4957 121.506 52.4957 121.477 52.4957C121.447 52.4957 121.418 52.4957 121.388 52.4957C121.358 52.4957 121.299 52.5253 121.299 52.5548C121.269 52.6435 121.299 52.7026 121.329 52.7322C121.358 52.7617 121.358 52.7617 121.329 52.7913C121.329 52.8209 121.299 52.8209 121.299 52.8209C121.299 52.8209 121.269 52.8209 121.24 52.7913C121.21 52.7913 121.18 52.7617 121.151 52.7617C121.121 52.7617 121.091 52.7617 121.062 52.8209C121.002 52.9095 121.032 52.9686 121.062 53.0278C121.091 53.0573 121.091 53.0573 121.062 53.0869C121.062 53.0869 121.062 53.0869 121.032 53.0869C121.032 53.0869 121.002 53.0869 120.973 53.0869C120.943 53.0869 120.913 53.0573 120.884 53.0869C120.854 53.0869 120.825 53.1164 120.795 53.146C120.736 53.2347 120.765 53.2938 120.795 53.3233C120.825 53.3529 120.825 53.3529 120.795 53.3825C120.795 53.3825 120.765 53.3825 120.765 53.3529C120.736 53.3233 120.706 53.3233 120.647 53.3233C120.617 53.3233 120.587 53.3529 120.558 53.3825C120.498 53.4416 120.528 53.5303 120.528 53.5598C120.558 53.5894 120.558 53.5894 120.528 53.6189C120.528 53.6189 120.528 53.6189 120.498 53.6189C120.498 53.6189 120.469 53.6189 120.439 53.5894C120.409 53.5598 120.38 53.5598 120.32 53.5598C120.291 53.5598 120.261 53.5894 120.232 53.5894C120.143 53.6781 120.202 53.7372 120.232 53.7667L120.261 53.7963C120.261 53.7963 120.261 53.7963 120.261 53.8258C120.232 53.8258 120.232 53.8258 120.232 53.8258C120.232 53.8258 120.202 53.8258 120.202 53.7963C120.172 53.7667 120.143 53.7372 120.083 53.7667C120.054 53.7667 120.024 53.7963 119.994 53.7963C119.905 53.8554 119.965 53.9441 119.965 53.9736L119.994 54.0032C119.994 54.0032 119.994 54.0032 119.965 54.0032C119.965 54.0032 119.935 54.0032 119.905 53.9736C119.876 53.9441 119.846 53.9441 119.787 53.9441C119.757 53.9441 119.727 53.9736 119.698 53.9736C119.639 54.0328 119.639 54.1214 119.668 54.1805C119.668 54.2101 119.668 54.2101 119.668 54.2397C119.668 54.2397 119.639 54.2397 119.639 54.2101C119.609 54.1805 119.55 54.151 119.49 54.151C119.461 54.151 119.431 54.151 119.401 54.1805C119.312 54.2397 119.342 54.3283 119.372 54.3875C119.372 54.417 119.401 54.417 119.372 54.417C119.342 54.417 119.342 54.417 119.312 54.3875C119.283 54.3579 119.253 54.3283 119.194 54.3579C119.164 54.3579 119.134 54.3579 119.105 54.3875C119.016 54.4466 119.046 54.5352 119.075 54.5648V54.5944C119.075 54.5944 119.046 54.5648 119.016 54.5648C118.986 54.5352 118.927 54.5057 118.868 54.5057C118.838 54.5057 118.808 54.5057 118.779 54.5352C118.719 54.5944 118.719 54.6535 118.749 54.7126C118.749 54.7422 118.749 54.7717 118.749 54.7717C118.749 54.7717 118.719 54.7717 118.69 54.7422C118.66 54.7126 118.601 54.7126 118.541 54.7126C118.512 54.7126 118.512 54.7126 118.482 54.7422C118.423 54.7717 118.423 54.8604 118.423 54.9195C118.423 54.9491 118.423 54.9786 118.423 55.0082C118.393 55.0082 118.334 54.9786 118.304 54.9195L118.275 54.8899L118.245 54.9195C118.245 54.9195 116.851 56.3088 116.051 57.2842C115.25 58.2596 113.56 60.7721 113.531 60.7721L113.501 60.8312L113.56 60.8607C113.56 60.8607 113.62 60.8903 113.649 60.9494C113.679 61.0085 113.649 61.0972 113.59 61.2154C113.531 61.3337 113.471 61.3632 113.442 61.3632C113.412 61.3632 113.382 61.3632 113.353 61.3632C113.323 61.3632 113.293 61.3632 113.234 61.3632C113.175 61.3632 113.115 61.3928 113.086 61.4519C113.027 61.5701 113.086 61.6588 113.145 61.7179C113.204 61.7771 113.234 61.8362 113.175 61.9544C113.086 62.1022 112.997 62.0726 112.908 62.1022C112.878 62.1022 112.878 62.1022 112.849 62.1022C112.789 62.1022 112.7 62.1318 112.671 62.2204C112.611 62.3387 112.7 62.3978 112.76 62.4569C112.819 62.516 112.878 62.5456 112.819 62.6934C112.76 62.8412 112.671 62.8412 112.582 62.8707C112.493 62.8707 112.404 62.9003 112.345 63.0185C112.285 63.1367 112.374 63.2254 112.404 63.255C112.463 63.3141 112.493 63.3437 112.434 63.4914C112.374 63.6097 112.315 63.6392 112.256 63.6392C112.226 63.6392 112.196 63.6392 112.196 63.6392C112.167 63.6392 112.137 63.6392 112.137 63.6392C112.078 63.6392 111.989 63.6688 111.959 63.7575C111.9 63.8757 111.989 63.9644 112.048 64.0235C112.107 64.0826 112.167 64.1417 112.107 64.2304C112.048 64.3191 111.989 64.4078 111.87 64.4078C111.811 64.4078 111.752 64.4078 111.752 64.4078H111.692L111.663 64.4373C111.603 64.5851 111.425 65.058 111.425 65.1467C111.425 65.2058 111.485 65.265 111.574 65.3536C111.603 65.3832 111.663 65.4127 111.663 65.4423C111.603 65.531 111.455 65.7674 111.455 65.7674L111.544 65.8266ZM113.442 64.7329C113.679 64.5851 113.946 64.526 114.213 64.4964C114.954 64.4078 115.695 64.792 116.051 65.4127C116.318 65.8561 116.377 66.3586 116.258 66.8611C116.14 67.3636 115.814 67.7774 115.369 68.0139C115.132 68.1617 114.865 68.2503 114.598 68.2799C113.857 68.3686 113.115 67.9843 112.76 67.3636C112.226 66.4177 112.522 65.2649 113.442 64.7329Z" fill="#1C2127"/>
<path d="M48.5668 4.52243L49.0116 4.84758L49.1598 5.91168L48.8633 6.29594L47.8552 5.52742L48.5668 4.52243ZM55.8014 11.0548C55.8904 10.9366 56.0683 10.907 56.1869 10.9957L58.7368 12.917C58.8554 13.0057 58.8851 13.183 58.7961 13.3013L58.6479 13.4786C58.5589 13.5969 58.381 13.6264 58.2624 13.5377L55.7125 11.6165C55.5939 11.5278 55.5642 11.3504 55.6532 11.2322L55.8014 11.0548ZM75.5188 29.9722L77.1199 31.1546C77.1496 31.2728 77.1496 31.391 77.1792 31.4797C77.1792 31.9822 76.7938 32.396 76.2897 32.396C77.0606 32.9576 77.9501 31.9822 77.9501 31.9822L78.6024 32.5142L77.7426 33.6966C77.4461 34.0217 77.2682 33.9922 77.0903 33.8444L74.7776 32.0118L74.7183 31.9526C74.3921 31.7162 74.3921 31.2137 74.6886 30.9476L75.5188 29.9722ZM46.2838 4.34508L45.5721 5.29095L58.8554 15.2817L58.47 15.7842C58.4107 15.8433 58.4107 15.8433 58.4107 15.8433C58.2624 16.0798 58.3217 16.4345 58.5886 16.6118L65.3192 21.6663C65.3192 21.6663 66.0901 23.4398 66.3866 23.6763C66.8017 23.9127 67.2761 23.9423 67.7208 23.8241L70.5672 25.9818C66.2976 30.7112 60.0414 29.8244 60.0414 29.8244C59.8635 29.7949 59.7746 29.9131 59.7746 30.0313L59.7153 34.406C59.7449 34.5833 59.8042 34.672 59.9821 34.7016C67.0982 35.6179 72.8799 30.7407 72.8799 30.7407L73.7102 31.3615C73.5916 31.7753 73.7101 32.2187 74.0363 32.5142L76.7641 34.5538C77.0903 34.8494 77.6536 34.8198 77.9501 34.4947C77.9501 34.4947 77.3571 39.0466 77.2978 39.5196C77.2385 39.8743 77.3571 40.2585 77.6536 40.495L78.81 41.3522C80.8262 42.8301 80.8558 40.9384 80.8558 40.9384L81.1523 37.3914C81.3302 35.3814 82.1308 35.5588 82.1308 35.5588L83.0203 36.2386C83.0203 36.2386 89.8102 47.4117 91.1148 49.599C92.1822 51.4907 92.8938 50.5449 92.8938 50.5449L96.8076 45.3426C97.282 44.7219 96.5111 43.9829 96.5111 43.9829L88.7724 36.5637C88.7131 36.5046 88.7131 36.5046 88.7131 36.5046C88.387 36.209 87.8829 36.2386 87.5864 36.5637L84.6511 33.401L84.2656 30.6816C84.2063 30.3565 83.9988 30.0313 83.7023 29.854L83.1982 29.4697L71.8125 20.9865L72.2573 20.484C72.3462 20.3657 72.3166 20.1884 72.198 20.0997L70.3004 18.6809L69.9149 18.3853C69.7963 18.2966 69.6184 18.2671 69.4405 18.2375H69.0551C68.8772 18.2671 68.6993 18.1784 68.5807 18.0897L68.1359 17.7646L61.5832 12.7988L60.753 12.917L56.8096 10.0203C56.098 9.48825 55.7718 9.19266 55.1491 9.45869C54.141 9.93162 53.7556 9.99074 53.044 9.45869L49.3081 6.65064L49.6935 6.14815L49.5156 4.52243L49.9604 3.96082C50.1383 3.6948 50.1086 3.36966 49.8418 3.1923C49.5749 3.01495 49.2488 3.10363 49.0709 3.36966L47.5291 5.35007L46.2838 4.34508Z" fill="#1C2127"/>
<path d="M114.717 45.047C114.272 45.7269 113.857 46.2293 113.442 46.6432C112.285 47.7664 110.803 48.4758 109.202 48.7418C109.617 47.9733 110.002 47.1457 110.358 46.318C111.811 42.9779 112.552 39.6083 112.493 36.2977C112.463 34.938 112.315 32.7507 111.989 31.1841L111.959 31.0068C111.752 30.0018 111.544 29.0264 111.188 27.8736C114.183 21.1343 114.094 14.0107 110.803 7.30093L107.245 0L104.398 8.30591C104.369 8.36503 104.369 8.39459 104.339 8.4537L103.183 11.4391C101.315 15.8433 99.0612 18.9765 96.0666 21.3707C94.673 22.4939 93.1905 23.5285 91.619 24.5926C88.5058 26.7504 85.3035 28.9672 82.5757 32.1004C81.9531 32.8098 81.3897 33.5192 80.856 34.2878L46.3432 38.1303L8.2724 42.3276L0 79.0392L24.6689 76.3198L25.1433 74.1029L25.4695 72.5954L26.6852 73.9256L28.4049 75.906L43.9712 74.2507L44.4753 71.9452L44.8014 70.4377L46.0171 71.7678L47.7961 73.8369L62.977 72.2112L63.5107 69.817L63.8368 68.3095L65.0525 69.6396L66.9204 71.7974L83.7914 69.9943L84.9181 64.9103C85.096 65.0285 85.2739 65.1172 85.4518 65.2354C87.1419 66.2404 88.9505 66.9793 90.8481 67.4818C93.5166 68.1912 96.2445 68.3686 99.0019 68.073C99.0909 68.073 99.2095 68.0434 99.2984 68.0434C100.722 67.8661 102.145 67.541 103.479 67.0976C103.687 67.0385 103.865 66.9498 104.072 66.8907C104.131 66.8611 104.191 66.8316 104.25 66.8316L104.309 66.802C107.007 65.8266 109.083 64.7033 111.01 63.1663C111.07 63.1368 111.129 63.0776 111.188 63.0185L111.218 62.989C111.425 62.8116 111.633 62.6638 111.811 62.4865C113.234 61.3041 114.509 60.0036 115.665 58.5552C115.814 58.3779 115.962 58.1709 116.11 58.0232C116.466 57.5502 116.792 57.1364 117.059 56.7226C117.148 56.5748 117.237 56.4566 117.326 56.3088V56.2792C117.8 55.5402 118.245 54.7126 118.719 53.8259C119.164 52.9095 119.549 52.0524 119.846 51.1656C120.231 50.0424 120.676 48.6236 120.884 46.7318L122.455 32.9281L114.717 45.047Z" fill="#1C2127"/>
<path opacity="0.5" d="M105.614 27.9031C102.619 31.7753 100.514 36.2682 99.5358 40.8793C98.8835 43.9829 98.7649 47.323 100.87 49.5694C104.547 53.4711 111.426 53.1756 115.695 49.0078C116.407 48.2984 117 47.5299 117.563 46.6727C117.385 48.1211 117.089 49.2147 116.703 50.3084C116.11 51.9932 115.28 53.5598 114.302 55.0673C113.264 56.693 111.188 58.7621 109.735 60.0627C108.283 61.3632 106.563 62.3091 104.725 62.8116C103.805 63.0481 102.886 63.2254 101.937 63.3436C99.9213 63.5801 97.9051 63.5801 96.0075 63.1072C94.1098 62.6342 92.3901 61.6588 91.2041 60.1809C89.099 57.5502 89.0693 53.7667 89.2472 50.338C89.3955 47.1752 90.0181 44.0125 90.878 40.9088C91.4413 38.8102 92.2715 36.7115 93.6058 34.9085C94.9104 33.0758 96.5708 31.5093 98.2312 30.0018C100.04 28.3169 104.072 24.3857 105.614 27.9031Z" fill="url(#paint0_linear)"/>
<path d="M112.078 56.9886C109.884 58.3483 106.948 58.969 104.873 57.7867C103.094 56.7817 102.649 54.6239 103.539 52.6139C104.636 50.1015 106.118 47.7368 107.215 45.2243C108.431 42.4754 109.083 39.6082 109.024 36.7115C108.994 35.4109 108.846 33.4601 108.579 32.2186C108.342 30.9772 108.134 29.9722 107.66 28.6421C107.867 32.13 107.363 35.7361 105.288 38.6919C102.056 43.303 97.0452 46.9978 95.533 52.5548C95.2958 53.412 95.2069 54.2988 95.2069 55.156C93.9616 51.7863 94.4953 47.5003 96.0074 43.9238C97.8161 39.6082 101.463 36.3568 104.339 32.7211C110.299 25.2428 111.514 17.0256 107.63 9.0744C105.644 14.8087 102.886 20.0701 98.0236 23.9718C93.7244 27.4302 88.7431 30.0018 85.0665 34.199C83.3468 36.1499 81.9236 38.3963 80.9155 41.1157C79.2847 45.4904 79.1365 50.2493 80.7079 54.2988C82.6352 59.235 87.0234 62.782 92.1529 64.1417C94.436 64.7329 96.8673 64.9102 99.3282 64.6146C100.514 64.4669 101.671 64.2008 102.827 63.8166C105.644 62.8707 108.105 61.7179 110.506 59.3828C111.514 58.4074 112.73 57.225 113.59 56.1018C114.361 55.0673 115.043 54.0623 115.814 52.4957C114.924 54.2101 113.62 55.7176 112.078 56.9886Z" fill="url(#paint1_linear)"/>
<path d="M19.8067 55.7176L22.238 45.4017L28.9982 44.6627L22.8903 72.2112L16.0707 72.9797L18.2648 62.6934L15.0033 63.0481L12.6313 73.3639L5.81177 74.1325L11.979 46.584L18.7392 45.8451L16.5451 56.1314L19.8067 55.7176Z" fill="white"/>
<path d="M43.6156 63.1072L42.0738 70.0239L28.494 71.5314L25.8848 68.5755L30.5102 47.7368L34.6316 44.0125L48.2114 42.505L46.6992 49.4217L36.6181 50.5449L35.7286 53.9441L46.0469 52.7913L44.5051 59.708L34.1868 60.8608L33.5345 64.2304L43.6156 63.1072Z" fill="white"/>
<path d="M57.5217 41.4705L52.8963 62.0431L63.2146 60.8903L61.6728 67.8661L48.093 69.3736L45.4838 66.3586L50.7318 42.2094L57.5217 41.4705Z" fill="white"/>
<path d="M76.8835 39.3127L72.2581 59.8853L82.5764 58.7326L81.0346 65.7083L67.4548 67.2158L64.8456 64.2009L70.0937 40.0516L76.8835 39.3127Z" fill="white"/>
<path d="M125.39 58.0527H125.094H124.827L124.56 58.1119H124.531H124.442C124.264 58.1414 124.086 58.171 123.908 58.2005H123.878H123.849L123.671 58.2596L122.9 58.4074H122.87H122.84C122.455 58.4961 122.07 58.5848 121.684 58.703C121.328 58.7917 120.943 58.9099 120.528 59.0282C120.468 59.0577 120.38 59.0873 120.291 59.1168C120.261 59.1168 120.231 59.1168 120.202 59.1168C120.113 59.1168 120.024 59.1464 119.935 59.176L112.908 60.6539C112.878 60.6243 112.848 60.6243 112.819 60.5948C112.552 60.4174 112.255 60.2992 111.959 60.2401L111.84 60.2105H111.692C111.544 60.2105 111.336 60.1809 111.129 60.1809C110.921 60.1809 110.743 60.1514 110.536 60.1514C110.298 60.1514 110.121 60.1218 109.943 60.1218C109.676 60.1218 109.557 60.1218 109.409 60.1218H109.29L109.172 60.1514L99.0314 62.2796C98.8831 62.1318 98.7349 62.0136 98.5866 61.9249C98.4087 61.8067 97.8454 61.452 97.0448 61.5406L96.8669 61.5702L96.689 61.6293C96.6594 61.6293 96.5408 61.6589 96.1553 61.718C95.7699 61.7771 95.3251 61.8362 94.91 61.8953C94.4949 61.9544 94.0798 62.0136 93.724 62.0727C93.2792 62.1318 92.9827 62.1614 92.7752 62.2205H92.7455H92.7159L92.538 62.25H92.4787L92.4194 62.2796L92.3008 62.3091L88.8614 63.2255L88.6242 63.2846C88.4166 63.2846 88.1794 63.3141 87.9422 63.3437C87.6754 63.3733 87.4085 63.4028 87.1417 63.4619L86.6969 63.5506L87.2306 62.0727L83.8801 62.7821L76.6752 64.2896H76.6159H76.5566C76.4676 64.3191 76.3786 64.3487 76.2897 64.3782C76.26 64.3782 76.2304 64.3782 76.2008 64.3782C76.1118 64.3782 76.0229 64.4078 75.9339 64.4078C75.6077 64.4669 75.2816 64.4965 74.9851 64.5556C74.6293 64.6147 74.2735 64.6738 73.9177 64.7625V63.521L71.605 64.0235L67.0389 65.0285L66.8609 65.0581L66.4755 65.1468L61.0792 66.2995C60.8123 66.3587 60.6048 66.4473 60.3083 66.5656C60.1304 66.6542 59.9228 66.7429 59.6856 66.8316C59.4188 66.9498 59.1816 67.0385 58.9444 67.1567C58.7368 67.2454 58.5292 67.3341 58.381 67.4228C58.1141 67.541 57.8473 67.6888 57.5508 67.8957C57.3136 68.073 57.106 68.2504 56.8985 68.4277C56.6316 68.6642 56.4241 68.9007 56.2165 69.1963C55.9497 69.551 55.7718 69.9057 55.6532 70.2899L54.2893 74.6054C54.141 75.0488 54.0817 75.6104 54.2003 76.1129C54.1114 76.2016 54.0224 76.2903 53.9631 76.4085C53.6963 76.7928 53.4591 77.2361 53.2812 77.7978C53.1922 78.0933 53.044 78.5072 52.8957 79.0096C52.7771 79.2757 52.7178 79.5417 52.6585 79.8077C52.6289 79.8964 52.6289 79.9851 52.5992 80.1033L52.5399 80.3693V80.6354C52.5399 81.6403 52.9847 82.4384 53.7852 82.8227C54.23 83.0296 54.7637 83.1183 55.3863 83.0591C55.5049 83.0591 55.6235 83.0296 55.7718 83L59.567 82.202L60.7234 81.9655V81.9359L65.8825 80.8423C66.8609 80.6354 67.5726 80.3989 68.1359 80.1329C68.5807 79.926 68.9958 79.6599 69.3219 79.3643L70.2114 80.1329L70.2411 80.1624C70.8341 80.8127 71.516 80.8718 71.9904 80.8423H72.109L72.2276 80.8127L76.1118 79.9851C76.5566 79.8964 77.4164 79.5713 78.0094 78.5072C78.128 78.2707 78.2466 78.0638 78.3652 77.8864L78.5135 77.5908L78.5728 77.2657V77.2066C78.6024 77.1475 78.6024 77.0884 78.6321 77.0292C78.6024 77.2953 78.5728 77.5317 78.6024 77.7682C78.6617 78.6549 79.0768 79.3643 79.7884 79.7782C80.2925 80.0737 80.8855 80.1624 81.6267 80.0737C81.8046 80.0442 82.0122 80.0146 82.2494 79.9555L88.5649 78.6254C88.6538 78.5958 88.7428 78.5958 88.8317 78.5663L89.2468 78.4776L92.8345 77.7386L92.8048 77.916L94.2577 78.4776L94.4356 78.5367L94.9693 78.7436L95.5623 78.6254L99.9802 77.7091L101.048 77.4726L101.581 76.4972L101.818 76.0538L101.907 75.8765L101.967 75.6991L102.085 77.2361L104.22 76.7928L107.126 76.2016C107.363 76.5267 107.719 76.8223 108.371 76.9701C108.579 77.0292 108.875 77.0884 109.231 77.0292C109.35 77.0292 109.468 76.9997 109.557 76.9701L111.396 76.5859C111.514 76.5563 111.662 76.5267 111.87 76.4676C112.048 76.4085 112.255 76.3494 112.433 76.2903C112.582 76.2312 112.73 76.172 112.878 76.1129C113.026 76.1129 113.175 76.1129 113.323 76.0834C113.708 76.0242 114.123 75.9947 114.509 75.906C114.894 75.8469 115.28 75.7878 115.635 75.6991H115.665H115.695L117.919 75.2262L118.571 75.0784C118.867 75.0193 119.164 74.9601 119.52 74.8715C119.786 74.8124 120.083 74.7532 120.32 74.6941L120.854 74.5759C121.091 74.5168 121.269 74.4577 121.506 74.369C121.743 74.2803 121.803 74.2507 121.892 74.2212L122.722 73.8665L122.989 73.2753C123.048 73.2162 123.078 73.1275 123.107 73.0684C123.196 72.9206 123.256 72.7728 123.345 72.5955C123.404 72.4477 123.463 72.2703 123.552 72.1225C123.582 72.0339 123.641 71.9156 123.671 71.827L123.76 71.7087L123.849 71.4427C123.938 71.2358 124.026 70.9698 124.086 70.6742C124.145 70.4377 124.204 70.2012 124.264 69.9648C124.323 69.7579 124.382 69.4918 124.471 69.1667L124.916 67.4228L124.768 67.3636L125.301 65.7379L126.102 63.2255C126.369 62.8708 126.517 62.5456 126.576 62.25L127.11 60.713L127.97 58.2301L125.39 58.0527ZM89.0689 70.7628C89.0689 70.7628 89.0393 70.7628 89.0689 70.7628C88.98 70.822 88.891 70.822 88.8021 70.8515L88.7724 70.822C88.8614 70.7924 88.9503 70.7628 89.0689 70.7628Z" fill="#1C2127"/>
<path d="M65.4673 70.9106L62.354 71.5609L61.761 71.6791C61.6721 71.7087 61.5831 71.8565 61.4349 72.1225C61.4052 72.2408 61.3756 72.3294 61.3459 72.4181C61.3163 72.5068 61.3459 72.5955 61.4349 72.6546L62.2354 72.4772L63.3918 72.2408L64.5481 72.0043L64.726 71.9747C64.8743 71.9452 65.0225 71.9156 65.1708 71.8861C65.319 71.8565 65.408 71.8861 65.4673 71.8861C65.4673 71.9452 65.4969 71.9747 65.4969 72.0338C65.4969 72.093 65.5266 72.1225 65.6155 72.1521L65.6452 72.0338L65.7934 72.1521L65.9417 71.8861C66.4754 71.7087 66.9794 71.5905 67.4242 71.5314C67.8986 71.4722 68.2841 71.4427 68.6399 71.4427C68.9957 71.4427 69.2625 71.5018 69.4701 71.5905C69.6776 71.6791 69.7666 71.7974 69.7666 71.9156C69.7369 71.9452 69.7369 71.9747 69.7369 71.9747C69.7666 72.0634 69.7962 72.2408 69.7666 72.4772C69.7666 72.7137 69.7073 72.9797 69.5887 73.3049L69.559 73.6004C69.4701 73.7482 69.3811 73.9551 69.2922 74.2212C69.2032 74.4872 69.1439 74.6941 69.1143 74.8419L68.8771 75.6104C68.7288 76.0242 68.6102 76.3789 68.5509 76.7041C68.462 76.9997 68.3434 77.2952 68.1655 77.5317C67.9875 77.7682 67.691 77.9751 67.3056 78.182C66.9201 78.3594 66.3568 78.5367 65.5859 78.714L59.9524 79.8964C59.8338 79.9259 59.7448 79.9259 59.7448 79.8964C59.7152 79.8668 59.7151 79.8373 59.7151 79.7782C59.7151 79.719 59.7151 79.6895 59.7151 79.6304C59.7151 79.6008 59.6559 79.5713 59.5965 79.5713C59.5076 79.6008 59.4186 79.6599 59.389 79.7782C59.3297 79.8964 59.3 79.9851 59.2704 80.0442L55.4752 80.8423C55.149 80.9014 54.9415 80.9014 54.7636 80.8127C54.6153 80.724 54.5264 80.5467 54.5264 80.2807C54.556 80.1329 54.5857 79.9851 54.6153 79.8373C54.645 79.6895 54.6746 79.5417 54.7636 79.4235C54.9118 78.8914 55.0601 78.4776 55.1787 78.1524C55.2973 77.8273 55.4159 77.5908 55.5345 77.4135C55.6531 77.2361 55.831 77.1179 55.9792 77.0292C56.1571 76.9405 56.3943 76.8814 56.7205 76.8223C56.8094 76.7928 57.017 76.7632 57.3431 76.6745C57.6693 76.5858 58.0251 76.5267 58.4105 76.4381C58.796 76.3494 59.1518 76.2607 59.5076 76.172C59.8634 76.0834 60.1006 76.0538 60.2192 76.0242C60.2785 75.9947 60.2785 76.0538 60.2489 76.1425C60.2192 76.2311 60.2192 76.2903 60.2489 76.3198C60.3971 76.2903 60.4861 76.2903 60.5454 76.2903C60.6047 76.2903 60.6343 76.2903 60.6936 76.2903C60.7529 76.2903 60.8122 76.2903 60.8715 76.2607C60.9605 76.2607 61.0791 76.2311 61.2273 76.2016C61.257 76.172 61.3459 76.1425 61.4645 76.1129C61.4942 76.1129 61.5535 76.0834 61.6128 76.0242C61.6721 75.9651 61.761 75.9356 61.8203 75.8764C61.8796 75.8173 61.9389 75.7582 62.0279 75.7287C62.0872 75.6695 62.1168 75.64 62.1465 75.6104L64.1034 75.2262C64.133 75.2262 64.1923 75.2853 64.2516 75.3739C64.3406 75.4922 64.3406 75.5809 64.3109 75.6695L64.6667 74.6941L64.9929 73.9256V73.8369C65.0522 73.6891 65.1115 73.5413 65.1115 73.3935C65.1411 73.2457 65.0818 73.1571 64.9929 73.1275C64.9336 73.1866 64.9039 73.1866 64.8743 73.1866C64.8446 73.1866 64.8446 73.1866 64.815 73.1571L64.7853 73.1275C64.7853 73.1275 64.7557 73.1275 64.7557 73.1866C64.6964 73.3049 64.6667 73.3935 64.6667 73.4231C64.6667 73.4822 64.7557 73.5118 64.9039 73.5709C64.9039 73.63 64.8446 73.7187 64.7557 73.8369C64.6667 73.9551 64.6074 74.0438 64.5481 74.0734C64.5185 74.1029 64.4888 74.1325 64.4888 74.1916C64.4592 74.2212 64.4592 74.2507 64.4295 74.2803L61.3163 74.9306L61.257 74.6645L60.7233 75.0488L57.7286 75.6991C57.7286 75.6104 57.6396 75.5809 57.4321 75.5809C57.2542 75.6104 57.0466 75.6104 56.8094 75.6104C56.6019 75.6104 56.424 75.5809 56.2757 75.4922C56.1275 75.4035 56.0978 75.2262 56.2164 74.9601L57.5803 70.6446C57.61 70.5264 57.6989 70.3786 57.8175 70.2308C57.9361 70.083 58.0547 69.9648 58.1733 69.817C58.3216 69.6987 58.4698 69.5805 58.6181 69.4623C58.7663 69.344 58.9146 69.2554 59.0628 69.2258C59.2111 69.1667 59.389 69.078 59.6262 68.9598C59.8634 68.8415 60.1006 68.7529 60.3082 68.6642C60.5454 68.5755 60.7529 68.4868 60.9012 68.3982C61.0791 68.339 61.168 68.2799 61.1977 68.2799L66.6236 67.1271L66.2085 68.1321L67.2166 66.9794L71.7828 65.9744V66.3586C71.7235 66.5655 71.6938 66.802 71.6345 67.0385C71.6049 67.3045 71.4863 67.5705 71.338 67.8957C71.2491 68.1912 71.1305 68.5164 71.0119 68.812C70.8933 69.1076 70.745 69.4327 70.5671 69.6987L65.4673 70.9106ZM59.9524 78.9801L59.7151 79.0392L59.6855 79.3348C59.7448 79.2757 59.8041 79.2461 59.8041 79.187C59.8634 79.0983 59.8931 79.0392 59.9524 78.9801Z" fill="url(#paint2_linear)"/>
<path d="M80.6777 68.9597L79.4621 68.9893L79.3731 69.0484C79.1952 69.5805 79.0173 70.1125 78.8394 70.615C78.6615 71.1471 78.5133 71.6496 78.3947 72.1816C78.3057 72.359 78.2168 72.5363 78.1278 72.7137C78.0389 72.891 77.8906 73.0388 77.6534 73.1866C77.6238 73.1866 77.5941 73.157 77.5941 73.1275C77.5941 73.0684 77.5941 73.0092 77.5941 72.9797C77.5941 72.9206 77.5941 72.891 77.5941 72.8614C77.5941 72.8319 77.5645 72.8023 77.5052 72.8023C77.4162 72.9797 77.3273 73.157 77.2383 73.3048C77.1494 73.4526 77.179 73.5708 77.2976 73.6595C77.179 74.1916 77.0604 74.6941 76.9418 75.2261C76.7936 75.7582 76.6453 76.2902 76.4674 76.7927L76.4378 76.9996C76.3488 77.1474 76.2599 77.3248 76.1413 77.5021C76.0227 77.6795 75.9041 77.7977 75.7855 77.8273L71.9013 78.6549C71.8716 78.6549 71.842 78.6253 71.7827 78.5662C71.7234 78.5071 71.6641 78.448 71.6641 78.4184L71.8123 78.182C71.8123 78.1524 71.8717 78.0637 71.931 77.9455C71.9903 77.7977 72.0792 77.6795 72.1385 77.5317C72.1978 77.3839 72.2571 77.2361 72.3164 77.1179C72.3757 76.9996 72.4054 76.911 72.4054 76.8814C72.4647 76.7336 72.5536 76.4971 72.6722 76.1424C72.7908 75.7877 72.9094 75.433 73.0577 75.0488C73.1763 74.6645 73.3245 74.2803 73.4431 73.9551C73.5617 73.6004 73.6507 73.3639 73.6803 73.2457C73.71 73.2162 73.7693 73.157 73.8286 73.0684C73.8879 72.9797 73.9175 72.9206 73.9175 72.9206V72.891C73.9472 72.8319 73.9768 72.8023 73.9768 72.7728L73.9472 72.7432C73.9175 72.7432 73.9175 72.7432 73.8879 72.7432C73.8879 72.7432 73.8582 72.7137 73.8582 72.6841C73.8582 72.6545 73.8879 72.625 73.9175 72.5659C73.9472 72.5363 73.9768 72.4772 74.0361 72.4181V72.3885C74.0954 72.2112 74.1251 72.0634 74.1251 71.9156C74.1251 71.7678 74.0954 71.6496 74.0361 71.5609L74.4512 70.3194L73.028 70.615C72.9391 70.6446 72.7908 70.6741 72.6129 70.7037C72.435 70.7332 72.2571 70.7628 72.0495 70.7924C71.842 70.8219 71.6641 70.8515 71.5158 70.881C71.3379 70.9106 71.249 70.9106 71.1897 70.9402L71.3676 70.3194C71.4565 70.1125 71.5455 69.9056 71.6344 69.7283C71.7234 69.5509 71.7827 69.344 71.8123 69.1666C71.6641 69.1962 71.5751 69.2553 71.5455 69.344C71.5158 69.4031 71.4862 69.4622 71.4565 69.4918C71.4565 69.5213 71.4269 69.4918 71.3972 69.4031C71.3676 69.2849 71.3972 69.1962 71.4565 69.1075L71.931 67.3931L72.3461 67.2453L72.4943 67.2158C72.5536 67.1862 72.6426 67.1862 72.7315 67.1567C72.8205 67.1271 72.9094 67.0976 73.028 67.0976L73.9768 66.8906C74.3326 66.802 74.6884 66.7429 75.0442 66.6837C75.4 66.6246 75.7558 66.5655 76.1709 66.5064C76.1709 66.5064 76.2006 66.5064 76.2302 66.5064C76.2599 66.5359 76.2599 66.5359 76.2599 66.5655C76.2599 66.6246 76.2599 66.7429 76.2302 66.9202C76.2006 67.0976 76.1709 67.1862 76.1709 67.2749L76.3785 67.2453C76.3785 67.2158 76.3785 67.1567 76.4081 67.068C76.4378 66.9793 76.4674 66.8906 76.4971 66.802C76.5267 66.7133 76.586 66.6246 76.6453 66.5359C76.7046 66.4473 76.7936 66.4177 76.8825 66.3882L84.0875 64.8807L83.198 67.334C83.0201 67.3931 82.9015 67.4818 82.8125 67.5705C82.7236 67.6592 82.6643 67.7774 82.6347 67.8956C82.5754 68.0139 82.5161 68.1617 82.4568 68.339C82.3975 68.4868 82.2788 68.6937 82.1306 68.9006C82.1602 68.9302 82.1009 68.9302 81.9527 68.9597C81.8044 68.9597 81.6265 68.9893 81.4486 68.9893C81.2707 68.9893 81.0928 69.0189 80.9149 69.0189C80.737 68.8711 80.6777 68.9006 80.6777 68.9597Z" fill="url(#paint3_linear)"/>
<path d="M81.1223 75.1079L81.2409 74.901C81.3002 74.8123 81.3595 74.7532 81.3892 74.6645C81.4188 74.5759 81.4485 74.5463 81.4781 74.5168C81.4781 74.5168 81.4781 74.4872 81.4485 74.4872C81.4188 74.4872 81.4188 74.4576 81.4188 74.4576C81.3892 74.4576 81.3299 74.4576 81.2409 74.4576C81.1816 74.4576 81.1223 74.4576 81.0927 74.4872L83.1682 68.339C83.2275 68.1321 83.2868 67.8957 83.3461 67.6888C83.4054 67.4818 83.524 67.2749 83.6426 67.0976C83.7612 66.8907 83.9095 66.7133 84.117 66.536C84.2949 66.3586 84.5618 66.1517 84.8583 65.9744L85.7478 65.797L86.1332 65.7083L87.3489 65.4423C87.764 65.3536 88.1494 65.3241 88.5052 65.3241C88.5349 65.4128 88.5645 65.4719 88.5349 65.5606C88.5052 65.6492 88.4756 65.7379 88.4459 65.8561C88.4163 65.9744 88.3866 66.063 88.3273 66.1813C88.2977 66.2995 88.268 66.3882 88.2384 66.4769C88.2977 66.4769 88.357 66.4769 88.357 66.4769L88.3866 66.5064C88.3866 66.5064 88.4163 66.4769 88.4163 66.4473C88.4163 66.4177 88.4756 66.3882 88.5349 66.3586C88.5645 66.2108 88.5942 66.0039 88.6831 65.7675C88.7424 65.531 88.8907 65.3241 89.1279 65.1763L92.5673 64.26L92.6859 64.2304L92.8638 64.2009C93.0417 64.1713 93.3086 64.1417 93.694 64.0826C94.0795 64.0235 94.4946 63.9644 94.9097 63.9053C95.3248 63.8462 95.7399 63.787 96.1253 63.7279C96.5108 63.6688 96.7776 63.6393 96.9555 63.5801C97.0148 63.5801 97.1038 63.6097 97.2224 63.6688C97.341 63.7575 97.4299 63.8462 97.5485 63.994C97.6375 64.1417 97.7264 64.2895 97.7561 64.4669C97.7857 64.6442 97.7857 64.8511 97.6968 65.0285L97.6671 65.2059C97.6078 65.2945 97.5485 65.3536 97.4892 65.4128C97.4299 65.4719 97.4003 65.531 97.3706 65.5606C97.341 65.6197 97.3113 65.6492 97.3113 65.6492C97.2817 65.6788 97.2817 65.7379 97.341 65.797C97.3706 65.8561 97.4299 65.8857 97.4299 65.9153V66.0335L97.2817 66.4473L97.252 66.5655C97.1631 66.8316 97.0741 67.068 96.9852 67.2158C96.8962 67.3636 96.8369 67.541 96.748 67.6592C96.659 67.807 96.5701 67.9252 96.4811 68.073C96.3922 68.2208 96.2736 68.3982 96.1253 68.6051C95.8288 69.6101 95.5323 70.5855 95.2062 71.5314C94.88 72.4772 94.5539 73.4526 94.1981 74.4576C93.9905 74.7828 93.7533 75.0488 93.5161 75.1966C93.2789 75.3444 93.0121 75.4626 92.6859 75.5217L88.9203 76.3198C88.9796 76.2607 88.9796 76.172 88.9796 76.0833C88.9796 75.9947 88.9203 75.9356 88.8314 75.9651C88.7721 75.9651 88.7128 75.9947 88.6831 76.0538C88.6535 76.1129 88.6238 76.1425 88.5942 76.2016C88.5645 76.2607 88.5349 76.2903 88.4756 76.3494C88.4163 76.4085 88.357 76.4381 88.2087 76.4676L81.8932 77.7977C81.3892 77.916 81.063 77.916 80.8851 77.7977C80.7072 77.6795 80.5886 77.5022 80.5886 77.2657C80.5886 76.9997 80.6183 76.7041 80.7369 76.3198C80.8555 75.9356 80.9444 75.5513 81.0334 75.1375L81.063 75.0784L81.1223 75.1079ZM85.6292 72.9797C85.4513 73.3344 85.303 73.7482 85.1844 74.1325L85.3623 74.1029C85.3623 74.0734 85.3623 74.0143 85.392 73.9551C85.4216 73.8665 85.4809 73.8369 85.5402 73.7778C85.5699 73.7482 85.5995 73.6891 85.6588 73.6004C85.7181 73.5413 85.7774 73.4527 85.8071 73.3935C85.8664 73.3344 85.9257 73.2457 85.9553 73.2162C86.0146 73.1571 86.0443 73.1275 86.0443 73.1275L87.675 72.7728C87.7047 72.8024 87.7343 72.8615 87.7936 72.9502C87.8529 73.0388 87.9122 73.0684 87.9715 73.0684L88.2384 73.0388C88.4163 73.0093 88.5942 72.9797 88.7721 72.9206C88.9796 72.8615 89.1575 72.8319 89.3651 72.7728C89.5726 72.7137 89.7802 72.6841 89.9581 72.625C90.136 72.5659 90.3139 72.5363 90.4621 72.4772C90.5214 72.4181 90.5807 72.359 90.64 72.2703C90.6993 72.1816 90.7586 72.1225 90.8179 72.0338L90.8476 71.8269C90.8772 71.7087 90.9662 71.5018 91.0551 71.2062C91.1441 70.9106 91.233 70.5855 91.3516 70.2308C91.4406 69.9056 91.5295 69.5805 91.6185 69.2554C91.7074 68.9598 91.7667 68.7233 91.7667 68.6051C91.7667 68.4277 91.7371 68.2799 91.6778 68.1913C91.6185 68.1026 91.4702 68.073 91.2923 68.1321C90.64 68.2799 89.9877 68.4277 89.3651 68.6051C88.7424 68.7824 88.0605 68.9302 87.3192 69.078C87.2303 69.1076 87.1413 69.1667 87.0524 69.2554C86.9634 69.344 86.9041 69.4623 86.8448 69.5805C86.7855 69.6987 86.7559 69.817 86.7262 69.9352C86.6966 70.0534 86.6669 70.1421 86.6669 70.2012C86.578 70.4672 86.489 70.7333 86.4297 70.9993C86.3704 71.2653 86.2815 71.5314 86.1925 71.8269C85.985 72.2408 85.8071 72.625 85.6292 72.9797ZM87.7343 67.4227C87.7343 67.4523 87.764 67.4818 87.8233 67.5114C87.9122 67.4523 88.0012 67.3636 88.0901 67.2158C88.1494 67.068 88.2087 66.9498 88.2384 66.8316L88.268 66.6247L88.0308 66.6838C88.0012 66.6838 87.9419 66.7724 87.9122 66.9202C87.8529 67.068 87.7936 67.1863 87.7343 67.2749C87.764 67.3636 87.7343 67.3932 87.7343 67.4227ZM88.95 75.5809C88.95 75.64 88.9796 75.6695 89.0389 75.6991L89.0686 75.4035H88.9796L88.95 75.5809Z" fill="url(#paint4_linear)"/>
<path d="M96.0072 73.2457C96.0961 73.0684 96.1554 72.891 96.2444 72.7137C96.3333 72.5363 96.363 72.359 96.3926 72.2112L96.5409 71.886C96.6002 71.8269 96.6595 71.7382 96.7484 71.5904C96.8374 71.4427 96.9263 71.3244 97.0153 71.1471C97.1042 70.9993 97.1635 70.8515 97.2525 70.7037C97.3118 70.5559 97.3711 70.4672 97.3711 70.3786L97.4007 70.3194C97.4007 70.2899 97.3711 70.2603 97.3414 70.2308C97.2821 70.2012 97.2525 70.2012 97.2228 70.2012C97.1932 70.2308 97.1635 70.3194 97.1339 70.4377C97.1042 70.5559 97.0449 70.6741 96.9856 70.7924C96.9263 70.9106 96.867 71.0288 96.7781 71.1471C96.6891 71.2357 96.6298 71.2949 96.5409 71.3244C96.4816 71.354 96.3926 71.2949 96.3333 71.2062C96.274 71.1175 96.2444 71.0288 96.2444 70.9697L98.3199 64.8807L98.6164 64.4373L109.409 62.1613C109.409 62.1613 109.498 62.1613 109.646 62.1613C109.794 62.1613 109.972 62.1613 110.18 62.1909C110.388 62.1909 110.565 62.2204 110.773 62.2204C110.981 62.2204 111.158 62.25 111.277 62.25C111.366 62.2796 111.455 62.3091 111.544 62.3682C111.633 62.4273 111.722 62.4865 111.781 62.5751C111.84 62.6638 111.9 62.7525 111.929 62.8707C111.959 62.9889 111.929 63.1072 111.9 63.2254L110.21 68.3095C110.15 68.5459 110.032 68.7528 109.854 68.9006C109.676 69.0484 109.498 69.1962 109.29 69.2849C109.083 69.3736 108.875 69.4622 108.668 69.5509C108.46 69.61 108.282 69.6987 108.134 69.7578C108.134 69.7578 108.134 69.7874 108.104 69.8169C108.104 69.8761 108.134 69.9352 108.164 69.9647C108.193 69.9943 108.253 70.0238 108.312 70.0238C108.371 70.0238 108.431 70.0534 108.46 70.0534C108.52 70.083 108.52 70.083 108.52 70.1421C108.757 70.5855 108.935 71.0288 109.083 71.5313C109.231 72.0338 109.32 72.5659 109.379 73.0979C109.379 73.1275 109.35 73.157 109.35 73.2753L109.32 73.4231C109.201 73.5117 109.113 73.5413 109.083 73.5709L104.013 74.635L103.864 72.891V72.8319C103.894 72.7137 103.953 72.5954 104.102 72.4772C104.131 72.5068 104.161 72.5363 104.191 72.5363C104.22 72.5659 104.28 72.5954 104.28 72.5954C104.28 72.5954 104.309 72.5954 104.309 72.5659L104.339 72.5363C104.339 72.5068 104.369 72.4772 104.369 72.4772C104.369 72.4476 104.369 72.3885 104.398 72.3294C104.428 72.2407 104.428 72.2112 104.428 72.2112C104.398 72.0929 104.369 71.9747 104.339 71.8269C104.309 71.6791 104.28 71.5313 104.22 71.4131C104.191 71.2653 104.131 71.1175 104.072 70.9106L101.641 71.4131C101.611 71.4131 101.581 71.3835 101.552 71.2949C101.522 71.2653 101.522 71.1471 101.522 70.9993C101.522 70.8515 101.552 70.7333 101.552 70.7037C101.73 70.5855 101.848 70.4968 101.878 70.4377C101.908 70.3786 101.967 70.2899 102.026 70.1716C102.026 70.083 102.056 69.9943 102.056 69.9352C102.056 69.8761 102.026 69.8169 101.967 69.7578C101.908 69.7874 101.819 69.8761 101.73 70.0238C101.641 70.1716 101.552 70.3194 101.463 70.4968C101.374 70.6741 101.315 70.8219 101.255 70.9697C101.196 71.1175 101.166 71.2062 101.166 71.2653L100.988 71.6791C100.959 71.7974 100.87 72.0338 100.751 72.359C100.633 72.6841 100.544 73.0388 100.425 73.3935C100.306 73.7482 100.217 74.1029 100.129 74.4281C100.04 74.7532 99.9803 74.9897 99.921 75.1079L99.6838 75.5513L95.2659 76.4676L95.088 76.4085C95.1177 76.2016 95.177 76.0538 95.2066 75.9355C95.2363 75.8173 95.2956 75.6695 95.3252 75.5513C95.3549 75.4035 95.3845 75.3148 95.4142 75.2261L95.5624 74.9897C95.5624 74.8419 95.6217 74.6941 95.6514 74.5463C95.7107 74.3689 95.7403 74.1916 95.77 74.0142L95.9182 73.5709L96.0072 73.2457ZM102.412 67.2158C102.412 67.2454 102.352 67.334 102.293 67.4818C102.234 67.6296 102.145 67.807 102.056 68.0434C101.967 68.2799 101.878 68.4573 101.789 68.5755L101.759 68.7528L101.73 68.9006C101.848 68.8415 101.967 68.7824 102.056 68.6642C102.145 68.5755 102.263 68.4573 102.352 68.3686C102.382 68.339 102.441 68.339 102.53 68.3095C102.619 68.2799 102.708 68.2503 102.827 68.2208C102.916 68.1912 103.034 68.1617 103.123 68.1321C103.212 68.1026 103.271 68.1026 103.331 68.1026L104.042 67.9548L104.606 67.8365L105.169 67.7183L105.97 67.5409C106.118 67.4523 106.207 67.334 106.266 67.2454C106.325 67.1271 106.385 67.0089 106.474 66.8907C106.503 66.6542 106.474 66.5064 106.355 66.4768C106.236 66.4177 106.059 66.4177 105.762 66.4768L102.649 67.1271L102.412 67.2158Z" fill="url(#paint5_linear)"/>
<path d="M112.404 73.1866C112.404 73.2162 112.374 73.2457 112.374 73.2753C112.344 73.3935 112.374 73.4822 112.404 73.5709C112.463 73.6595 112.463 73.7482 112.374 73.8664C112.374 73.9256 112.315 74.0142 112.196 74.0734C112.107 74.1325 111.989 74.1916 111.84 74.2507C111.692 74.3098 111.573 74.3394 111.455 74.3689C111.336 74.3985 111.247 74.4281 111.188 74.4281L109.172 74.8419C109.172 74.8419 109.083 74.8419 108.964 74.8123C108.846 74.7828 108.786 74.7532 108.816 74.7532C108.816 74.6941 108.816 74.6054 108.846 74.4872C108.875 74.3689 108.905 74.2803 108.905 74.2212C109.201 73.0093 109.557 71.8565 109.913 70.6741C110.269 69.5214 110.654 68.339 111.04 67.0976L111.069 66.9202L111.247 66.3291L111.396 66.1221C111.514 65.9152 111.692 65.7379 111.959 65.5605C111.959 65.5901 111.989 65.6492 111.959 65.7379C111.959 65.8266 111.959 65.8857 111.989 65.9152C111.989 65.9152 111.989 65.9744 111.959 66.0335C111.929 66.0926 111.9 66.1221 111.9 66.1517L112.078 66.1221L112.285 65.5605C112.315 65.3241 112.255 65.1763 112.078 65.1763L112.878 62.7229L120.083 61.2155C120.172 61.1859 120.202 61.2155 120.231 61.2746C120.261 61.3337 120.261 61.4224 120.231 61.511C120.202 61.5997 120.172 61.6884 120.142 61.7771C120.083 61.8657 120.053 61.9249 120.024 61.984L120.231 61.9544C120.291 61.8657 120.38 61.7475 120.439 61.5702C120.528 61.3928 120.587 61.2746 120.646 61.1859C120.646 61.1859 120.676 61.1563 120.706 61.1268C120.735 61.0972 120.765 61.0677 120.765 61.0677C121.18 60.9494 121.566 60.8608 121.892 60.7721C122.248 60.6834 122.603 60.5947 122.959 60.506L123.819 60.3583L124.086 60.2991C124.204 60.2696 124.293 60.2696 124.382 60.24C124.471 60.2105 124.531 60.2105 124.62 60.2105L124.797 60.1809H125.094L124.501 61.9249C124.501 61.9544 124.471 62.0135 124.412 62.1022C124.323 62.1909 124.293 62.25 124.264 62.25L124.234 62.2796C124.175 62.3091 124.145 62.3091 124.175 62.2796C124.175 62.25 124.204 62.25 124.204 62.2204C124.204 62.1909 124.204 62.1909 124.175 62.1613C124.145 62.1613 124.056 62.1613 123.908 62.1909C123.878 62.3682 123.849 62.5751 123.789 62.7525C123.73 62.9298 123.671 63.1367 123.611 63.3141L123.582 63.4323L123.552 63.787L123.404 63.9348C123.345 63.9644 123.196 63.9939 123.018 64.0235C122.841 64.0826 122.633 64.1122 122.455 64.1713C122.248 64.2304 122.07 64.2895 121.892 64.3191C121.714 64.3782 121.595 64.4078 121.536 64.4078L119.876 64.7625L118.571 65.0285L117.385 65.2945L115.665 65.6492L115.458 65.8857L115.161 67.0385C115.161 67.0385 115.161 67.0385 115.132 67.068C115.102 67.0976 115.102 67.0976 115.102 67.068C115.191 67.0385 115.28 67.0089 115.398 66.9498C115.487 66.8907 115.547 66.8315 115.576 66.802L123.196 65.2354L122.574 67.1863L121.744 67.6887L115.28 68.9893L114.509 69.4031C114.479 69.4327 114.42 69.4918 114.361 69.5214C114.242 69.9352 114.183 70.2899 114.094 70.5855C114.005 70.8811 113.946 71.2358 113.827 71.6791C113.946 71.6496 114.034 71.5905 114.094 71.5313C114.153 71.4722 114.183 71.3835 114.183 71.2653C114.212 71.1766 114.212 71.0584 114.242 70.9697C114.242 70.8515 114.301 70.7628 114.39 70.6741C114.509 70.5855 114.598 70.4968 114.687 70.4081C114.776 70.3194 114.835 70.2603 114.865 70.2603L122.159 68.7233L122.337 68.7824C122.248 69.1075 122.188 69.3736 122.129 69.5805C122.07 69.7874 122.01 70.0239 121.951 70.2603C121.892 70.4968 121.832 70.6741 121.773 70.8219C121.744 70.8811 121.684 70.9697 121.625 71.088C121.566 71.2062 121.506 71.354 121.477 71.5018C121.417 71.6496 121.358 71.7678 121.328 71.9156C121.269 72.0338 121.239 72.1225 121.18 72.1816C121.18 72.1816 121.18 72.2112 121.151 72.2112C121.121 72.2407 121.121 72.2407 121.091 72.2703C121.062 72.2999 120.973 72.3294 120.824 72.3885C120.676 72.4476 120.587 72.4772 120.557 72.4772L119.994 72.5954C119.698 72.6546 119.401 72.7137 119.105 72.8023C118.808 72.891 118.512 72.9501 118.245 73.0093L117.563 73.157L115.339 73.63C114.983 73.6891 114.627 73.7482 114.272 73.8073C113.916 73.8665 113.56 73.9256 113.204 73.9551C113.026 73.9847 112.908 73.9551 112.819 73.896C112.73 73.8369 112.7 73.7778 112.641 73.6891C112.611 73.6004 112.582 73.5117 112.552 73.4231C112.522 73.3344 112.433 73.2457 112.344 73.1866C112.404 73.1275 112.404 73.1571 112.404 73.1866Z" fill="url(#paint6_linear)"/>
<defs>
<linearGradient id="paint0_linear" x1="89.1982" y1="44.9916" x2="117.552" y2="44.9916" gradientUnits="userSpaceOnUse">
<stop stop-color="#EF5A5A"/>
<stop offset="1" stop-color="#FFC350"/>
</linearGradient>
<linearGradient id="paint1_linear" x1="95.2154" y1="16.5737" x2="98.95" y2="68.5098" gradientUnits="userSpaceOnUse">
<stop stop-color="#EF5A5A"/>
<stop offset="1" stop-color="#FFC350"/>
</linearGradient>
<linearGradient id="paint2_linear" x1="45.9981" y1="72.4128" x2="125.309" y2="77.2679" gradientUnits="userSpaceOnUse">
<stop stop-color="#EF5A5A"/>
<stop offset="1" stop-color="#FFC350"/>
</linearGradient>
<linearGradient id="paint3_linear" x1="46.1591" y1="69.7823" x2="125.469" y2="74.6374" gradientUnits="userSpaceOnUse">
<stop stop-color="#EF5A5A"/>
<stop offset="1" stop-color="#FFC350"/>
</linearGradient>
<linearGradient id="paint4_linear" x1="46.2587" y1="68.1513" x2="125.569" y2="73.0063" gradientUnits="userSpaceOnUse">
<stop stop-color="#EF5A5A"/>
<stop offset="1" stop-color="#FFC350"/>
</linearGradient>
<linearGradient id="paint5_linear" x1="46.3968" y1="65.9039" x2="125.707" y2="70.759" gradientUnits="userSpaceOnUse">
<stop stop-color="#EF5A5A"/>
<stop offset="1" stop-color="#FFC350"/>
</linearGradient>
<linearGradient id="paint6_linear" x1="46.5626" y1="63.1956" x2="125.873" y2="68.0506" gradientUnits="userSpaceOnUse">
<stop stop-color="#EF5A5A"/>
<stop offset="1" stop-color="#FFC350"/>
</linearGradient>
</defs>
</svg>
